ffmpeg version 3.4.8-0ubuntu0.2 Copyright (c) 2000-2020 the FFmpeg developers
  built with gcc 7 (Ubuntu 7.5.0-3ubuntu1~18.04)
  configuration: --prefix=/usr --extra-version=0ubuntu0.2 --toolchain=hardened --libdir=/usr/lib/x86_64-linux-gnu --incdir=/usr/include/x86_64-linux-gnu --enable-gpl --disable-stripping --enable-avresample --enable-avisynth --enable-gnutls --enable-ladspa --enable-libass --enable-libbluray --enable-libbs2b --enable-libcaca --enable-libcdio --enable-libflite --enable-libfontconfig --enable-libfreetype --enable-libfribidi --enable-libgme --enable-libgsm --enable-libmp3lame --enable-libmysofa --enable-libopenjpeg --enable-libopenmpt --enable-libopus --enable-libpulse --enable-librubberband --enable-librsvg --enable-libshine --enable-libsnappy --enable-libsoxr --enable-libspeex --enable-libssh --enable-libtheora --enable-libtwolame --enable-libvorbis --enable-libvpx --enable-libwavpack --enable-libwebp --enable-libx265 --enable-libxml2 --enable-libxvid --enable-libzmq --enable-libzvbi --enable-omx --enable-openal --enable-opengl --enable-sdl2 --enable-libdc1394 --enable-libdrm --enable-libiec61883 --enable-chromaprint --enable-frei0r --enable-libopencv --enable-libx264 --enable-shared
  libavutil      55. 78.100 / 55. 78.100
  libavcodec     57.107.100 / 57.107.100
  libavformat    57. 83.100 / 57. 83.100
  libavdevice    57. 10.100 / 57. 10.100
  libavfilter     6.107.100 /  6.107.100
  libavresample   3.  7.  0 /  3.  7.  0
  libswscale      4.  8.100 /  4.  8.100
  libswresample   2.  9.100 /  2.  9.100
  libpostproc    54.  7.100 / 54.  7.100
[rawvideo @ 0x55dc6fddfa20] Estimating duration from bitrate, this may be inaccurate
Input #0, rawvideo, from '../../SVC-Encoder-20220109T061506Z-001/SVC-Encoder/Dataset/RollerCoaster/ERP_8x8/tile_yuv/Tile_22_480x240.yuv':
  Duration: 00:00:10.00, start: 0.000000, bitrate: 41472 kb/s
    Stream #0:0: Video: rawvideo (I420 / 0x30323449), yuv420p, 480x240, 41472 kb/s, 30 tbr, 30 tbn, 30 tbc
Stream mapping:
  Stream #0:0 -> #0:0 (rawvideo (native) -> h264 (libx264))
Press [q] to stop, [?] for help
[libx264 @ 0x55dc6fdecc60] using cpu capabilities: MMX2 SSE2Fast LZCNT SSSE3 SSE4.2 AVX
[libx264 @ 0x55dc6fdecc60] profile High, level 2.1
Output #0, rawvideo, to 'RollerCoaster_Tile_22_480x240_x264_QP_28.h264':
  Metadata:
    encoder         : Lavf57.83.100
    Stream #0:0: Video: h264 (libx264), yuv420p, 480x240, q=-1--1, 30 fps, 30 tbn, 30 tbc
    Metadata:
      encoder         : Lavc57.107.100 libx264
    Side data:
      cpb: bitrate max/min/avg: 0/0/0 buffer size: 0 vbv_delay: -1
frame=  300 fps=0.0 q=34.0 LPSNR=Y:inf U:inf V:inf *:inf size=      25kB time=00:00:09.93 bitrate=  20.3kbits/s speed=29.3x    
video:25kB audio:0kB subtitle:0kB other streams:0kB global headers:0kB muxing overhead: 0.000000%
[libx264 @ 0x55dc6fdecc60] frame I:2     Avg QP:27.36  size:  1790  PSNR Mean Y:48.96 U:50.39 V:51.32 Avg:49.50 Global:49.47
[libx264 @ 0x55dc6fdecc60] frame P:76    Avg QP:28.05  size:   161  PSNR Mean Y:47.94 U:49.86 V:50.59 Avg:48.57 Global:48.55
[libx264 @ 0x55dc6fdecc60] frame B:222   Avg QP:33.60  size:    42  PSNR Mean Y:47.77 U:49.85 V:50.58 Avg:48.44 Global:48.42
[libx264 @ 0x55dc6fdecc60] consecutive B-frames:  1.0%  0.7%  1.0% 97.3%
[libx264 @ 0x55dc6fdecc60] mb I  I16..4: 36.7% 59.1%  4.2%
[libx264 @ 0x55dc6fdecc60] mb P  I16..4:  1.5%  1.8%  0.0%  P16..4:  7.9%  1.5%  0.1%  0.0%  0.0%    skip:87.2%
[libx264 @ 0x55dc6fdecc60] mb B  I16..4:  0.0%  0.0%  0.0%  B16..8:  4.6%  0.1%  0.0%  direct: 0.0%  skip:95.3%  L0:42.0% L1:57.9% BI: 0.1%
[libx264 @ 0x55dc6fdecc60] 8x8 transform intra:56.1% inter:79.0%
[libx264 @ 0x55dc6fdecc60] coded y,uvDC,uvAC intra: 5.3% 24.2% 0.3% inter: 0.2% 0.4% 0.0%
[libx264 @ 0x55dc6fdecc60] i16 v,h,dc,p: 43% 40%  7% 10%
[libx264 @ 0x55dc6fdecc60] i8 v,h,dc,ddl,ddr,vr,hd,vl,hu:  4%  2% 91%  1%  0%  0%  0%  0%  1%
[libx264 @ 0x55dc6fdecc60] i4 v,h,dc,ddl,ddr,vr,hd,vl,hu:  4% 11% 41% 17%  1%  1%  2%  1% 22%
[libx264 @ 0x55dc6fdecc60] i8c dc,h,v,p: 71% 20%  8%  1%
[libx264 @ 0x55dc6fdecc60] Weighted P-Frames: Y:0.0% UV:0.0%
[libx264 @ 0x55dc6fdecc60] ref P L0: 59.5% 15.2% 18.2%  7.1%
[libx264 @ 0x55dc6fdecc60] ref B L0: 65.5% 27.4%  7.1%
[libx264 @ 0x55dc6fdecc60] ref B L1: 77.8% 22.2%
[libx264 @ 0x55dc6fdecc60] PSNR Mean Y:47.822 U:49.856 V:50.588 Avg:48.477 Global:48.461 kb/s:20.14
